<?xml version="1.0" encoding="utf-8"?>
<!-- Generator: Adobe Illustrator 21.1.0, SVG Export Plug-In . SVG Version: 6.00 Build 0)  -->
<svg version="1.1" id="Isolation_Mode" xmlns="http://www.w3.org/2000/svg" xmlns:xlink="http://www.w3.org/1999/xlink" x="0px"
	 y="0px" viewBox="0 0 1037.2 397.5" style="enable-background:new 0 0 1037.2 397.5;" xml:space="preserve">
<style type="text/css">
	.st0{fill:#231F20;}
	.st1{fill-rule:evenodd;clip-rule:evenodd;fill:#231F20;}
	.st2{fill-rule:evenodd;clip-rule:evenodd;fill:#0067B0;}
	.st3{fill-rule:evenodd;clip-rule:evenodd;fill:#FFFFFF;}
</style>
<g>
	<g>
		<path class="st0" d="M438.4,243v1.3h-24.8V243c3.7,0,6.4-2.6,6.4-9.2v-48.2l-22.5,59.6h-1.3l-24.9-53.9v30.8c0,5.2,0.7,21,11.8,21
			v1.3h-26V243c12.1,0,12.9-15.9,12.9-21v-32.9c-3.3-5.9-7.7-5.9-10-6v-1.3h20.1l22.2,47.7l17.7-47.7h17.8v1.3
			c-3.8,0-6.8,2.1-6.8,7.8v42.8C430.9,240.5,434.6,243,438.4,243z"/>
		<path class="st0" d="M505.3,244.4h-22.8V243c5.9,0,3.1-7.3,2-9.8l-2.8-7.1h-22c-1.2,3.6-6,17.4,7.3,16.9v1.3H446V243
			c2.8-0.1,5.1,0,13.2-20.7l15.2-40.5h1.2c16.4,39.2,22.3,54.4,22.3,54.4c2.9,7.1,5,6.7,7.4,6.8V244.4z M481.1,224.8l-11-27.7
			l-10.2,27.7H481.1z"/>
		<path class="st0" d="M571.6,244.4h-7.5c-13.7-0.1-11.8-0.1-17.5-19.4c-2.7-9.2-11.3-9.2-12.4-9.2h-4.2v18.6c0,6.1,2.5,8.7,6.2,8.7
			v1.3h-22.9V243c3.8,0,6-2.5,6-9.2v-43.3c0-5.5-2-7.4-6-7.4v-1.3h19.5c17.7,0,28.9,2.1,28.9,17c0,11.5-6.9,15.3-17,16.2
			c5.9-0.2,12.4,2,16.9,19.8c1.8,6.8,7.7,8.1,10,8.3V244.4z M532.7,183.1h-2.8v31.3h2.8c9.4,0,16.7,0,16.7-15.6
			C549.4,182.9,541.8,183.1,532.7,183.1z"/>
		<path class="st0" d="M580.5,181.8h24.8v1.3c-3.8,0-6.9,2-6.9,7.5v43.6c0,6.1,3.2,8.9,6.9,8.9v1.3h-24.8V243c3.7,0,6.9-2.8,6.9-8.9
			v-43.6c0-5.5-3-7.5-6.9-7.5V181.8z"/>
		<path class="st0" d="M594.1,164.9h11.3v0c-6,6.5-14.1,10.7-22.8,11.7l-2,0.2v-1.3L594.1,164.9z"/>
		<path class="st0" d="M673.9,244.4H651V243c5.9,0,3.1-7.3,2-9.8l-2.8-7.1h-22c-1.2,3.6-6,17.4,7.3,16.9v1.3h-20.9V243
			c2.8-0.1,5.1,0,13.2-20.7l15.2-40.5h1.2c16.4,39.2,22.3,54.4,22.3,54.4c2.9,7.1,5,6.7,7.4,6.8V244.4z M649.7,224.8l-11-27.7
			l-10.2,27.7H649.7z"/>
		<path class="st0" d="M735.9,181.8v1.3c-3.8,0-6.9,2-6.9,7.5v43.6c0,6,3.2,8.8,6.9,8.8v1.3h-24.8V243c3.8,0,6.9-2.8,6.9-8.8v-43.6
			c0-5.5-3-7.5-6.9-7.5v-1.3H735.9z"/>
		<path class="st0" d="M770.5,245.2c-15.8,0-22.8-5.2-22.8-5.2v-17.1h1.3c1.4,8.1,6,21,21.4,21c11.5,0,13.9-14,3.2-21.6l-14.1-9.1
			c-10.6-6.8-17-15.2-9.9-25.3c0,0,4.4-6.8,17.6-6.8c14,0,21.5,4.3,21.5,4.3v14.9h-1.3c-1.2-6.8-5.7-17.9-20.2-17.9
			c-9.6,0-15,12.1-2.6,20.2l14.2,9.3c11.8,7.8,15.3,17.5,9.6,26C788.5,237.9,784.5,245.2,770.5,245.2z"/>
		<path class="st0" d="M860.9,244.4h-22.8V243c5.9,0,3.1-7.3,2-9.8l-2.8-7.1h-22c-1.2,3.6-6,17.4,7.3,16.9v1.3h-20.9V243
			c2.8-0.1,5.1,0,13.2-20.7l15.2-40.5h1.2c16.4,39.2,22.3,54.4,22.3,54.4c2.9,7.1,5,6.7,7.4,6.8V244.4z M836.7,224.8l-11-27.7
			l-10.2,27.7H836.7z"/>
		<path class="st0" d="M889.6,244.4H870v-0.8c3.8,0,5.2-4.5,5.2-10.6v-39.8c0-5.5-1.2-10.7-5.2-10.7v-0.7h19.6
			c12.4,0,23.4,0.1,23.4,15.2c0,13.5-13.6,15.3-15.4,15.3c5.8,0,19.6,1.1,19.6,16.2C917.2,243.9,905,244.4,889.6,244.4z
			 M886.2,183.1V212h4.4c5.2,0,11.5-1.9,11.5-15.2c0-13.2-7.4-13.7-12.2-13.7H886.2z M890.6,213.3h-4.4V243h3.7
			c8.1,0,15.8,0.2,15.8-15C905.7,213.8,896.9,213.3,890.6,213.3z"/>
		<path class="st0" d="M975.8,225.4v18.9h-47.4V243c3.7,0,5-3.9,5-10v-40.4c0-5.5-1.1-9.5-5-9.5v-1.3h46.2v16.4h-1.3
			c-1.5-15-21.2-15.1-24.9-15.1h-4v29h4.4c1.2,0,12.7,0,13.4-9.1h1.3v19.6h-1.3c-0.7-9.2-12.3-9.2-13.4-9.2h-4.4V243h3.6
			c3.9,0,23.6,0.2,26.4-17.6H975.8z"/>
		<path class="st0" d="M1037.2,225.1v19.3h-47.4V243c3.8,0,5.6-3.6,5.6-9.7v-42.5c0-5.4-2.5-7.7-6.3-7.7v-1.3h24.6v1.3
			c-3.8,0-7.4,1.5-7.4,7.9v52h3.2c4.8,0,24.1,0,26.4-18H1037.2z"/>
		<g>
			<g>
				<path class="st0" d="M635,150.9V139h-14.3v11.9h-3.6v-26.6h3.6v11.9H635v-11.9h3.5v26.6H635z"/>
				<path class="st0" d="M675,132.4c0.7,1.7,1,3.5,1,5.3c0,1.8-0.3,3.6-1,5.3c-0.7,1.6-1.7,3.1-2.9,4.3c-1.3,1.3-2.7,2.2-4.3,3
					c-1.7,0.7-3.5,1-5.3,1c-1.8,0-3.6-0.3-5.3-1c-1.6-0.7-3.1-1.7-4.3-3c-1.2-1.2-2.2-2.7-2.9-4.3c-0.7-1.7-1.1-3.5-1.1-5.3
					c0-1.8,0.4-3.6,1.1-5.3c0.7-1.6,1.7-3.1,2.9-4.3c1.3-1.2,2.7-2.2,4.3-2.9c1.7-0.7,3.5-1.1,5.3-1.1c1.8,0,3.6,0.4,5.3,1.1
					c1.6,0.7,3.1,1.7,4.3,2.9C673.4,129.3,674.3,130.7,675,132.4z M673,137.7c0-2.8-1.1-5.4-3.1-7.4c-2-2-4.6-3.1-7.4-3.1
					c-2.8,0-5.4,1.1-7.4,3.1c-2,2-3.1,4.6-3.1,7.4c0,2.8,1.1,5.4,3.1,7.4c2,1.9,4.6,3.1,7.4,3.1c2.8,0,5.4-1.1,7.4-3.1
					C671.9,143.1,673,140.4,673,137.7z"/>
				<path class="st0" d="M707.8,127.1h-8.9v23.8h-3.6v-23.8h-8.9v-2.8h21.3V127.1z"/>
				<path class="st0" d="M725.7,127.1v9.1h14.1v2.8h-14.1v9.2h15.8v2.8h-19.4v-26.6h19.4v2.8H725.7z"/>
				<path class="st0" d="M761.6,124.3v23.8h13.3v2.8H758v-26.6H761.6z"/>
			</g>
			<g>
				<path class="st0" d="M619.7,279.1l-2.5,1.9c-0.9-1-1.9-1.8-3.1-2.4c-1.5-0.7-3.1-1.1-4.7-1.1c-2.8,0-5.4,1.1-7.4,3.1
					c-2,2-3.1,4.6-3.1,7.4s1.1,5.5,3.1,7.4c2,2,4.6,3.1,7.4,3.1c1.9,0,3.7-0.5,5.3-1.5c1.3-0.8,2.5-1.9,3.4-3.2l2.8,1.6
					c-1.2,1.8-2.7,3.3-4.5,4.3c-2.1,1.2-4.5,1.9-7,1.9c-1.8,0-3.6-0.4-5.3-1.1c-1.6-0.7-3.1-1.7-4.3-2.9c-1.3-1.3-2.2-2.7-3-4.3
					c-0.7-1.7-1.1-3.5-1.1-5.3c0-1.8,0.4-3.6,1.1-5.3c0.7-1.6,1.7-3.1,3-4.3c1.2-1.3,2.7-2.2,4.3-2.9c1.7-0.7,3.5-1.1,5.3-1.1
					c2.2,0,4.3,0.5,6.2,1.5C617.1,276.7,618.5,277.8,619.7,279.1z"/>
				<path class="st0" d="M660.5,283.2c0.7,1.7,1,3.5,1,5.3c0,1.8-0.3,3.6-1,5.3c-0.7,1.6-1.7,3.1-2.9,4.3c-1.3,1.3-2.7,2.2-4.3,3
					c-1.7,0.7-3.5,1-5.3,1c-1.8,0-3.6-0.3-5.3-1c-1.6-0.7-3.1-1.7-4.3-3c-1.2-1.2-2.2-2.7-2.9-4.3c-0.7-1.7-1.1-3.5-1.1-5.3
					c0-1.8,0.4-3.6,1.1-5.3c0.7-1.6,1.7-3.1,2.9-4.3c1.3-1.2,2.7-2.2,4.3-2.9c1.7-0.7,3.5-1.1,5.3-1.1c1.8,0,3.6,0.4,5.3,1.1
					c1.6,0.7,3.1,1.7,4.3,2.9C658.8,280.1,659.7,281.6,660.5,283.2z M658.4,288.5c0-2.8-1.1-5.4-3.1-7.4c-2-2-4.6-3.1-7.4-3.1
					c-2.8,0-5.4,1.1-7.4,3.1c-2,2-3.1,4.6-3.1,7.4c0,2.8,1.1,5.4,3.1,7.4c2,1.9,4.6,3.1,7.4,3.1c2.8,0,5.4-1.1,7.4-3.1
					C657.3,293.9,658.4,291.3,658.4,288.5z"/>
				<path class="st0" d="M679.7,275.1v23.8h13.3v2.8h-16.9v-26.6H679.7z"/>
				<path class="st0" d="M711.5,275.1v26.6h-3.6v-26.6H711.5z"/>
				<path class="st0" d="M741.3,297.4L730,283.6v18.1h-3.6V274l14.8,18.4l14.9-18.4v27.7h-3.6v-18.2L741.3,297.4z"/>
				<path class="st0" d="M777.4,296.5l-2.6,5.2h-3.6l13.7-27.6l13.7,27.6H795l-2.6-5.2H777.4z M778.4,294.5h13l-6.5-13L778.4,294.5z
					"/>
			</g>
		</g>
		<g>
			<g>
				<polygon class="st1" points="622.2,87.1 615.5,81.9 623.9,81.3 626.9,72.9 629.7,81.3 637.9,81.9 631.5,87.1 634,95.7 
					626.9,90.8 620,95.7 622.2,87.1 				"/>
			</g>
			<g>
				<polygon class="st1" points="666.4,87.1 659.7,81.9 668,81.3 671,72.9 673.9,81.3 682,81.9 675.7,87.1 678.1,95.7 671,90.8 
					664.1,95.7 666.4,87.1 				"/>
			</g>
			<g>
				<polygon class="st1" points="710.6,87.1 703.8,81.9 712.2,81.3 715.2,72.9 718,81.3 726.2,81.9 719.8,87.1 722.3,95.7 
					715.2,90.8 708.3,95.7 710.6,87.1 				"/>
			</g>
			<g>
				<polygon class="st1" points="754.7,87.1 748,81.9 756.3,81.3 759.4,72.9 762.2,81.3 770.4,81.9 764,87.1 766.4,95.7 759.4,90.8 
					752.4,95.7 754.7,87.1 				"/>
			</g>
		</g>
	</g>
	<g>
		<polygon class="st2" points="0,0 268,0 268,397.5 0,397.5 0,57.8 		"/>
		<path class="st3" d="M205.2,269.7L193,288.8c0,0-2.2,12.6,3.2,14.3s17.7,2.8,21.1-6.1s-4.1-15.9-4.1-15.9l0.2,10.5h-4.1
			C209.9,282.7,209.2,274.9,205.2,269.7z"/>
		<g>
			<path class="st3" d="M46.1,227.3c0.1,0,12.9,0.6,22-8.3c-1.8-1-3.6-2-5.2-3.1c-3.5,2.8-7.5,3.6-10.6,3.6c-3,0-5.1-0.6-5.3-0.7
				c0,0,0,0,0,0c0.1,2,0.1,3.7-0.7,4.4c-1.2,1-0.9,2.4-0.8,4.4C45.6,227.4,45.8,227.3,46.1,227.3z"/>
			<path class="st3" d="M48.3,214.4c0.1,0,5.8,1.6,10.6-1.3c-4.3-3.2-7.4-6-8.4-7c-0.7,1.2-1.2,2.1-1.6,2.7
				C47.4,210.3,47.8,214.2,48.3,214.4z"/>
			<path class="st3" d="M60.3,141.4c22.9,12,44.4,4.7,48.2,3.3l-2.4-2.2c-2.4,0.7-8.5,1.8-22.9,1.2c-14.2-0.6-22.4-21.1-26.3-34.5
				c-6,9.6-5.6,21.2,0.9,30.7C58.1,140.4,59.8,141.1,60.3,141.4z"/>
			<path class="st3" d="M70.7,248.7c4.8-8.1,9-20.5,10.4-24.8c-0.7-0.1-1.5-0.3-2.2-0.5C72,243.6,50,244.8,44.6,244.8
				c0,0-0.1,0-0.1,0c0.2,1.5,0.1,2.8-0.5,4.1c-0.5,1,0.5,2.3,1.5,3.8C51.1,254,66.4,255.8,70.7,248.7z"/>
			<path class="st3" d="M64.1,118.7c3.7,9.3,10,20.5,18.8,21.2l15.5-9.1l15,2c0-0.1,0-0.1,0-0.2c-0.3-1.5-0.4-2.9-0.4-4.3
				c-1.6,0.9-3.3,1.4-5.1,1.4c-0.4,0-0.8,0-1.3-0.1c-15.2-1.7-32.7-35-33.4-36.4c0,0-2.1-8-3-13.2c-0.2-0.9-1.1-1.5-2-1
				c-3.1,1.5-6.4,5.1-7,24.7c-0.6,0.6-1.1,1.2-1.6,1.7C60.7,109.3,62.2,114,64.1,118.7z"/>
			<path class="st3" d="M56.9,238.4c8.9-2.8,14.9-8.4,17.7-16.5c-0.7-0.3-1.4-0.6-2.1-0.9c-9.3,10.1-22.1,10.8-25.7,10.8
				c-0.5,0-0.8,0-0.9,0c-0.3,0-0.6-0.1-0.8-0.2c-0.2,0.6-0.4,1.3-0.7,2c-0.9,2.3-0.9,4.5-0.5,6.6C44.4,240.3,50.3,240.5,56.9,238.4z
				"/>
			<path class="st3" d="M141.5,101.6c0.3,0,0.5,0.1,0.8,0.2c0.3-1,0.5-2.4,0-3.7c-0.2-0.5-0.6-1-0.9-1.5c-0.6,0.2-3,0.9-5.9,2.2
				C137,100.3,139.1,101.6,141.5,101.6z"/>
			<path class="st3" d="M118.3,155.8l-0.6-2.5c-2.3,1.4-16.3,9.2-34.9,9.2c-4.9,0-10-0.6-15.4-1.9c0,0.6-0.1,0.9-0.1,0.9
				c0.1,1.1-0.1,2.5-0.4,4C77.9,167.9,102.8,171,118.3,155.8z"/>
			<path class="st3" d="M115,150.6l-3.7-3.4c-0.2,0.2-0.4,0.5-0.7,0.6c-0.6,0.3-9.6,4.1-22.4,4.1c-7.7,0-16.9-1.4-26.4-5.8
				c2.8,4.7,4.2,8.2,5,10.6C90,163.1,110.2,153.2,115,150.6z"/>
			<path class="st3" d="M121.9,147c-2.4-1.2-5.4-4-7.5-10.4l-15.3-2l-9.4,5.6c12.7,0.1,15.8-1.3,15.9-1.4l1.1-0.6l1,0.8l11.1,10.2
				C119.7,148.6,120.8,147.8,121.9,147z"/>
			<path class="st3" d="M113,119c1.3,0.2,2.6-0.2,3.8-1.1c7.5-9.6,23.7-12.1,25.1-12.3c0-0.2-0.1-0.3-0.1-0.5
				c-0.1,0-0.2,0.1-0.3,0.1c-4.2,0-7.6-2.6-9.9-5c-3.4,0.8-7.3,0.6-11.1-0.6c-4-1.3-11.9-9.9-29.4-8.4
				C95.6,100.9,105.1,118.2,113,119z M110.8,101.5c2.2-0.4,4.4,1.1,4.8,3.3c0.4,2.2-1.1,4.4-3.3,4.8c-2.2,0.4-4.8-0.1-5.2-2.3
				C106.6,105,108.6,101.9,110.8,101.5z"/>
			<path class="st3" d="M52.4,261.9c5.9,2.9,12.9,5.4,19.3,2.2c8.5-4.2,15.3-17.8,20.4-40.5c-0.6,0.2-1.2,0.3-1.9,0.4
				c-1.3,0.2-2.5,0.3-3.8,0.3c-0.2,0-0.4,0-0.7,0c-1.1,3.5-5.5,17.4-11.1,26.7c-3.6,6-11.4,7.5-18.2,7.5c-3.7,0-7.2-0.4-9.4-0.8
				c0.2,1.6,2.2,3,4.1,4.1C51.5,261.7,51.9,261.7,52.4,261.9z"/>
			<path class="st3" d="M107.1,125.9c2.6,0.3,4.8-0.7,6.7-3.1c0,0,0.2-0.1,0.3-0.2c-0.2,0-0.3,0-0.5,0c-0.3,0-0.7,0-1-0.1
				c-11-1.2-21.8-23.3-25.3-31c-2.5,0.4-5.1,1-7.9,1.8c-0.5,0.2-1.1,0.3-1.6,0.5C83.6,104.4,96.9,124.8,107.1,125.9z"/>
			<path class="st3" d="M140,115.1c1.9-1.3,2.9-4.1,2.7-5.8c0-0.1-0.2,0-0.2,0c-0.1,0-13,1.9-20.5,8.5c-0.8,1.1-1.7,2.1-2.6,2.8
				c-0.1,0.1-0.1,0.2-0.2,0.2c-2.3,3.3-3,6.9-2.2,11.1c2.5,12.4,8.2,12.4,8.3,12.4c0,0,1.8-0.6,2.4-0.8c2.8-1,2.2-0.6,11-1.6
				s2.7-13.5,2.1-15.3c-0.6-1.8-3.4,0.8-8.1,2.1c-4.7,1.3-5.4,0.8-6.1-1.2C125.9,125.6,137.9,116.6,140,115.1z"/>
			<path class="st3" d="M222,120.9c5.8-17.7-2.3-31.4-6.8-30.9c-4.6,0.5-13.1,12.6-13.1,12.6s-6.4-6.2-14.4-9
				c-1.7,0.9-5.7,3.8-9.1,11.3c-0.3,0.7-1,1.1-1.7,1.1c-0.2,0-0.5-0.1-0.7-0.2c-0.9-0.4-1.3-1.5-0.9-2.4c2.5-5.6,5.4-8.9,7.7-10.9
				c-9.3-1.4-10.9,1.5-14.9-4.9c-4.1-6.5-0.9-17.6-9.1-14.1c-6.1,2.6-12.8,14-15.8,19.8c2.1,1.6,1.3,4.9,1.4,5.1
				c0.1,0.2-1.3,5-0.2,7.5c1.1,2.5-0.5,8.7-0.5,8.7s-1,6.8,1.5,14.6c2.4,7.7-1.9,17.3,1.4,21.6c4.7,3.1,22.5,13.5,36.6,7
				c-3,7.7-22.2,7-32.2,2.9c-0.9-0.4-1.7-0.7-2.3-0.9c1.2,3.8,8.2,18.5,7.9,20.5c-0.2,1.3-6.4-7.2-9.8-13.5
				c-2-7.9-11.5-9.2-11.5-9.2s3.8,4.2,3.3,5.5c-1-1.6-3.6-2.4-3.6-2c-0.3,1.6,0,8.4-2.3,8.1c0,0-2.2-0.5-1.7-2.4
				c0.5-1.9,2.8-4.9,0.8-6.1c-2-1.2-5.3,2.5-5.5,1.5c-0.2-1,4-4.8,4-4.8s-0.2-1.1-2.5-1s-3.6,2-4.4,2.9c0.5-1.5,1.7-3.1,2.8-4.2
				c-1.4,0.3-4,1.8-4.2,2.1c-2.5,2.6-5.3,4.9-8.5,6.8c-2.4,1.4-26.1,17.3-28.8,18.3c-3.7,1.4,13.5-12.3,9.3-11.7
				c-2.9,0.4-5.9,0.6-9.1,0.6c-0.7,0-1.3,0-2,0c-6.7-0.2-12.6-1.1-16.7-2c-2.2,7.8-6.4,17.4-6.9,19.3c-0.5,1.9-3.9,8.8-6.9,14.4
				l0.4,0.4c0.1,0.1,7.5,6.3,10,8.1c2.6,1.8,7.4,4.6,8.3,5c0.9,0.4,1.6,0.9,2.7,1.3c5.2,2.3,10.7,3.6,15.8,2.8
				c1.2-0.2,2.4-0.6,3.5-1c1.1-0.5,2.9-1.6,3.3-1.8c-0.8,0-1.5,0.1-2.2,0c-3.5-0.2-6.8-1-10-2c-6.3-2.1-12.2-5-17.7-8.5
				c6.1,2.4,12.2,4.4,18.5,5.6c3.1,0.6,6.3,1,9.2,0.8c3-0.2,5.7-1.1,6.9-2.9c3.7-5.3,7.5-10.6,11.4-15.8c4-5.2,7.9-10.3,12.3-15.3
				l0.9-1.1l1.6-0.3c1.2-0.3,2.3-0.7,3.3-1.5c0.3-0.2,0.5-0.4,0.8-0.7c0.2-0.2,0.2-0.2,0.9-0.8l0.4-0.3c-0.1,0,0.4-0.3,0.8-0.4
				c0.4-0.1,0.7-0.3,1.1-0.3c0.2,0,0.4,0,0.5-0.1l0,0l0,0h0c0.1,0,0.2,0,0.3,0c0.5-0.1,2.1-0.1,3.3,0.6c0.4,0.2,1,0.7,1.3,0.9
				c0.2,0.2,0.5,0.6,0.7,0.8c0.3,0.4,0.6,0.8,0.7,1.1c0.2,0.3,0.4,0.6,0.5,0.9c1.1,2.2,1.7,4,2.4,5.9c0.7,1.9,1.3,3.7,1.9,5.7
				c1.3,4,1.9,8.1,2.5,11.9c0.3,1.9,0.6,3.7,1,5.4c0.4,1.6,0.9,2.9,1.3,3.3c0.2,0.2,0.4,0.4,0.8,0.5c0.4,0.1,1.2,0.2,1.8,0.1
				c1.4-0.2,3.1-0.9,4.8-1.6c3.4-1.5,6.7-3.4,10-5.3c6.7-3.8,13.2-8.1,19.7-12.2c-5.4,5.6-11.2,10.9-17.3,15.8
				c-3.1,2.4-6.3,4.7-9.8,6.8c-1.8,1-3.6,2-6,2.7c-1.3,0.3-2.5,0.5-4,0.4c-1.5-0.1-3.2-0.6-4.5-1.7c-1.3-1-2.2-2.2-2.8-3.4
				c0,0,0-0.1,0-0.1c-4.8,5.8-6,27.2-7.2,33.8h0c1.6,13.1,20.9,22.8,20.9,22.8l0.5,43.4l2.9,8.2c0,0-2.7,3.9-3.9,1.8
				c-1.1-2.1-11.8-6.8-14.4-8.2c-2.6-1.4-4.9-12.8-7.4-28c-2.5-15.3-11-24.1-11-24.1s3.3-14.9,3.3-16.3c0-1.4,5.5-2.6,5.5-2.6
				c-1.9-9.2,2.9-31.3,4.1-41.4c0.7-16.6-6.1-14.8-14.2-6.7l-4.1,4.5c-4.4,4.8-8.9,9.5-13.5,14.1c0,0,0,0-0.1,0.1
				c-2.2,3.3-4.8,5.8-7.7,7.6c-5.5,26.4-13.2,41.7-23.5,46.7c-2.8,1.4-5.7,1.9-8.5,1.9c-3.6,0-7.2-0.9-10.4-2.2
				c-0.1,3.5-0.6,9.3-1.6,19c-3,27.8,8.3,39.7,23.5,39s11-13.2,8-19.1c-3.6-6.8-13.1-6.7-16-4.3c-0.4,0.3-0.7,0.8-0.6,2
				c0.3,2.9,2.8,5.4,4.9,6.7c1.7,1.1,2.2,1.6,3.6,1.3s0.7-1.6,1.6-1.7c1-0.1,1.9,0.6,2,1.6c0.2,2-1,3.5-3.1,3.7c-0.2,0-0.4,0-0.6,0
				c-4.4,0-11.5-4.9-12.2-11.3c-0.2-2,0.4-3.8,1.8-5c3.9-3.6,13-2.1,14-2c20.4,2.9,30.3,21.9,32.2,23.9c1.9,2.1-3.4,8.9-0.7,10.5
				c2.7,1.6,38,3.8,41.9,3.8s5.6-3.3,5.6-3.3s6.3-2.6,7.4-2.3c1.1,0.2,8.1-1,8.1-1c4.5-1.7,4.6-6.7,7-23.6
				c2.5-16.9,22.9-48.4,22.9-48.4s14.5-13.2,14-31.8c-0.5-18.7-21.8-41.9-25-52.4c-3.2-10.5,10.1-38.2,10.1-38.2
				S216.2,138.6,222,120.9z M174.1,116.3c5,1.2,6.3,4.4,6.3,4.4s-2.2,0.4-3.9,0.6c-0.7-0.5-1.3-1.2-1.2-1.8c0.1-1.4-0.5-0.2-0.5-0.2
				s-0.6,1.5-0.4,2.3c-1.1,0.5-2.5,2.1-2.5,2.1l-2-2.8c0.8-0.3,0.7-2.4,0.7-2.4s-0.1-1.3-0.5,0c-0.3,0.9-1.8,1.3-2.8,1.5
				c-1.9-0.6-3.8-1.6-0.8-2.5C166.5,117.4,169.1,115.1,174.1,116.3z M166,106c0.9,3.4-3.8,6.7-7.4,7.7c-0.9,0.2-1.7,0.4-2.6,0.4
				c-1,0-1.9-0.2-2.7-0.5c-1.7-0.6-3-1.8-3.4-3.4c-0.8-3.1,1.6-6.3,5.6-7.4c1.8-0.5,4-0.5,6-0.1C164,103.3,165.6,104.5,166,106z
				 M149.3,94.1c2.9-10.6,9.8-14.2,10.1-14.3l2.2-1.1l2.6,13.3l-15.7,5.4L149.3,94.1z M172.8,152c-1.8,0-3.7-0.2-5.6-0.7
				c-10.4-2.7-17-8-18-14.4l-0.1-0.5l0.2-0.4c0.2-0.4,6.1-10,22.9-7.3c17,2.7,17.8,16.7,17.8,16.8l0,0.8l-0.6,0.4
				C189.3,146.9,181.8,152,172.8,152z M195.2,248.2c1.6-0.1,3.3,0,4.8,0.5c1.5,0.4,3,1.2,4.1,2.3c-1.4-0.6-2.9-0.8-4.3-0.9
				c-1.4,0-2.9,0.2-4.3,0.5c-1.4,0.3-2.7,0.8-4.1,1.3l-2,0.9l-1.8,1l-3.1,2c-1.1,0.6-2.2,1.3-3.3,1.8c-2.3,1.1-4.6,2.1-7.1,2.7
				c-2.5,0.7-5,1.1-7.5,1.1c-2.5,0-5.1-0.3-7.4-1.4c2.5,0.2,4.9-0.2,7.2-0.6c2.3-0.5,4.6-1.2,6.8-2.1c1.1-0.4,2.2-0.9,3.3-1.4
				c1.1-0.4,2.1-1,3.2-1.5c1-0.6,2.1-1.2,3.1-1.7l3.1-1.9l0.1-0.1l0,0l2.2-1c0.8-0.3,1.5-0.6,2.3-0.8
				C192,248.6,193.6,248.3,195.2,248.2z M198.1,118.1c-0.8,1.4-2.2,2.3-3.9,2.6c-0.4,0.1-0.7,0.1-1.1,0.1c-1.3,0-2.6-0.4-3.8-1
				c-1.5-0.9-2.9-2.5-3.8-4.3c-1-2.1-1.1-4.1-0.3-5.5c1.8-3.1,7-2,10-0.3C198.4,111.5,199.7,115.3,198.1,118.1z M204.4,115.1
				c2.7-6.2,9.1-16.5,9.4-17l1.8-2.8l1.4,3c0.1,0.3,3.4,7.4,1.2,18c-1.2,5.5-3.2,9.1-6,10.6c-0.9,0.5-1.9,0.7-2.9,0.7
				c-0.8,0-1.6-0.2-2.4-0.5C205,126.3,200.8,123.4,204.4,115.1z"/>
			<path class="st3" d="M208.4,123.8c0.4,0.2,1.2,0.4,2.1-0.1c1-0.5,2.9-2.3,4.1-8.1c1-5,0.7-9.2,0.1-12c-2.1,3.6-5.4,9.2-7,13
				C206,120.4,206.3,122.8,208.4,123.8z"/>
			<path class="st3" d="M193.8,111.9c-1.5-0.9-3.3-1.3-4.6-1.3c-0.9,0-1.5,0.2-1.8,0.6c-0.3,0.6-0.2,1.8,0.4,3
				c0.7,1.4,1.7,2.6,2.7,3.2c1,0.6,2.1,0.8,3.1,0.6c0.9-0.2,1.6-0.6,2-1.3C196.7,115.2,195.8,113.1,193.8,111.9z"/>
			<path class="st3" d="M172,131.3c-13.2-2.1-18.6,4-19.9,5.6c1.1,5.1,6.8,9.3,15.8,11.7c8.6,2.2,17.1-2.4,19.5-3.9
				C187,142.1,184.7,133.4,172,131.3z M180.6,145.5c-0.7-1.6-1.9-3.8-2.7-4c-1-0.2-0.9,3.3-0.7,4.9c-1.4,0.3-2.8,0.5-4.4,0.5
				c-1.5,0-2.9-0.2-4.3-0.5c-2.4-0.6-4.6-1.4-6.5-2.4c0.6-1.1,2.4-5,1.3-5.2c-1-0.2-3.5,2.2-4.6,3.3c-2-1.4-3.4-3-4.1-4.7
				c0.8-0.8,2.1-1.9,4.1-2.8c0.3,1.5,1,4.7,1.8,4.3c0.9-0.4,1.5-4.1,1.7-5.4c1.3-0.3,2.8-0.4,4.5-0.4c1.5,0,3.2,0.1,4.9,0.4
				c4.3,0.7,7.2,2.2,9.2,4c-0.8,1.4-1.9,3.6-1.6,4.3c0.4,0.8,2.6-0.8,3.8-1.8c0.9,1.3,1.5,2.6,1.8,3.6
				C183.7,144.2,182.3,144.9,180.6,145.5z"/>
			<path class="st3" d="M158.7,105.2c-0.9,0-1.7,0.1-2.4,0.3c-2.4,0.7-4.1,2.5-3.7,4.1c0.2,0.9,1.1,1.3,1.7,1.5c1,0.4,2.4,0.4,3.6,0
				c3-0.8,5.8-3.3,5.5-4.3c-0.1-0.4-0.9-1-2.4-1.3C160.3,105.3,159.5,105.2,158.7,105.2z"/>
			<path class="st3" d="M154,91.6l5.9-2l-1-5C157.5,85.8,155.5,88.1,154,91.6z"/>
			<path class="st3" d="M139,286.3c0.9,5.1,3.9,22.1,3.9,22.1l3.8,3.4l5.1-38.3c0,0-10.3-3.9-12.7-11.2c0,0-6.3,8.8-4.6,10.6
				C136,274.6,138.1,281.2,139,286.3z"/>
		</g>
	</g>
</g>
</svg>
