<?xml version="1.0" encoding="iso-8859-1"?>
<!-- Generator: Adobe Illustrator 16.0.0, SVG Export Plug-In . SVG Version: 6.00 Build 0)  -->
<!DOCTYPE svg PUBLIC "-//W3C//DTD SVG 1.1//EN" "http://www.w3.org/Graphics/SVG/1.1/DTD/svg11.dtd">
<svg version="1.1" id="Capa_1" xmlns="http://www.w3.org/2000/svg" xmlns:xlink="http://www.w3.org/1999/xlink" x="0px" y="0px"
	 width="471.815px" height="471.816px" viewBox="0 0 471.815 471.816" style="enable-background:new 0 0 471.815 471.816;"
	 xml:space="preserve">
<g>
	<g>
		<path d="M434.715,123.979c0-22.231-18.021-40.251-40.25-40.251H40.25C18.02,83.728,0,101.749,0,123.979v35.247h434.715V123.979
			L434.715,123.979z"/>
		<path d="M372.021,188.501c-18.22,0-35.312,4.912-50.029,13.475H0v122.11c0,22.229,18.02,40.251,40.25,40.251h267.226
			c17.414,14.805,39.955,23.75,64.547,23.75c55.026,0,99.793-44.766,99.793-99.793C471.814,233.268,427.049,188.501,372.021,188.501
			z M148.643,309.17c0,2.852-2.313,5.163-5.164,5.163H63.855c-2.852,0-5.165-2.312-5.165-5.163v-15.71
			c0-2.854,2.313-5.165,5.165-5.165h79.624c2.852,0,5.164,2.312,5.164,5.165V309.17z M372.021,351.546
			c-34.935,0-63.25-28.318-63.25-63.251s28.315-63.25,63.25-63.25c34.934,0,63.25,28.318,63.25,63.25
			S406.955,351.546,372.021,351.546z"/>
		<path d="M378.97,278.57l-0.044-0.016c-10.105-3.805-13.349-6.004-13.349-9.055c0-3.479,3.274-5.473,8.985-5.473
			c3.856,0,7.49,0.58,11.106,1.771c1.706,0.563,3.575,0.394,5.153-0.472c1.579-0.863,2.729-2.342,3.176-4.086l0.681-2.656
			c0.861-3.354-1.061-6.795-4.368-7.82c-3.422-1.062-7.155-1.705-11.387-1.961v-3.859c0-3.589-2.909-6.498-6.499-6.498h-0.644
			c-3.589,0-6.498,2.909-6.498,6.498v4.826c-12.231,2.708-19.787,10.967-19.787,21.721c0,10.453,6.729,17.377,21.806,22.451
			c7.012,2.368,11.682,4.832,11.682,9.161c0,3.867-3.798,6.177-10.157,6.177c-4.442,0-8.989-0.859-13.515-2.555
			c-1.729-0.646-3.649-0.529-5.286,0.324c-1.636,0.854-2.831,2.361-3.289,4.15l-0.785,3.063c-0.828,3.233,0.929,6.569,4.063,7.715
			c4.406,1.612,9.583,2.664,14.685,2.99v4.683c0,3.588,2.91,6.498,6.5,6.498h0.642c3.59,0,6.499-2.91,6.499-6.498v-5.628
			c12.693-2.536,20.841-11.312,20.841-22.559C399.18,290.416,393.117,283.562,378.97,278.57z"/>
	</g>
</g>
<g>
</g>
<g>
</g>
<g>
</g>
<g>
</g>
<g>
</g>
<g>
</g>
<g>
</g>
<g>
</g>
<g>
</g>
<g>
</g>
<g>
</g>
<g>
</g>
<g>
</g>
<g>
</g>
<g>
</g>
</svg>
