<?xml version="1.0" encoding="utf-8"?>
<!-- Generator: Adobe Illustrator 16.0.0, SVG Export Plug-In . SVG Version: 6.00 Build 0)  -->
<!DOCTYPE svg PUBLIC "-//W3C//DTD SVG 1.1//EN" "http://www.w3.org/Graphics/SVG/1.1/DTD/svg11.dtd">
<svg version="1.1" id="Layer_1" xmlns="http://www.w3.org/2000/svg" xmlns:xlink="http://www.w3.org/1999/xlink" x="0px" y="0px"
	 width="150px" height="150px" viewBox="0 0 150 150" enable-background="new 0 0 150 150" xml:space="preserve">
<g>
	<path fill="#BA0E0E" d="M75.005,14.841c-33.172,0-60.164,26.985-60.164,60.157c0,33.168,26.992,60.16,60.164,60.16
		c33.175,0,60.153-26.992,60.153-60.16C135.158,41.826,108.182,14.841,75.005,14.841z M75.005,120.425
		c-25.05,0-45.431-20.374-45.431-45.427c0-25.046,20.381-45.423,45.431-45.423c25.045,0,45.419,20.377,45.419,45.423
		C120.425,100.051,100.051,120.425,75.005,120.425z"/>
	<path fill="#BA0E0E" d="M80.529,73.02V46.06c0-3.05-2.475-5.525-5.524-5.525S69.48,43.01,69.48,46.06v30.917l15.19,18.457
		c1.094,1.323,2.678,2.015,4.26,2.015c1.237,0,2.488-0.419,3.51-1.267c2.36-1.942,2.705-5.425,0.764-7.771L80.529,73.02z"/>
</g>
</svg>
